G04 #@! TF.FileFunction,Legend,Bot*
%FSLAX46Y46*%
G04 Gerber Fmt 4.6, Leading zero omitted, Abs format (unit mm)*
G04 Created by KiCad (PCBNEW 4.0.2+dfsg1-stable) date Tue 16 May 2017 12:42:15 BST*
%MOMM*%
G01*
G04 APERTURE LIST*
%ADD10C,0.100000*%
%ADD11C,0.300000*%
%ADD12C,0.150000*%
G04 APERTURE END LIST*
D10*
D11*
X191023643Y-105873000D02*
X191166500Y-105801571D01*
X191380786Y-105801571D01*
X191595071Y-105873000D01*
X191737929Y-106015857D01*
X191809357Y-106158714D01*
X191880786Y-106444429D01*
X191880786Y-106658714D01*
X191809357Y-106944429D01*
X191737929Y-107087286D01*
X191595071Y-107230143D01*
X191380786Y-107301571D01*
X191237929Y-107301571D01*
X191023643Y-107230143D01*
X190952214Y-107158714D01*
X190952214Y-106658714D01*
X191237929Y-106658714D01*
X189809357Y-106515857D02*
X189595071Y-106587286D01*
X189523643Y-106658714D01*
X189452214Y-106801571D01*
X189452214Y-107015857D01*
X189523643Y-107158714D01*
X189595071Y-107230143D01*
X189737929Y-107301571D01*
X190309357Y-107301571D01*
X190309357Y-105801571D01*
X189809357Y-105801571D01*
X189666500Y-105873000D01*
X189595071Y-105944429D01*
X189523643Y-106087286D01*
X189523643Y-106230143D01*
X189595071Y-106373000D01*
X189666500Y-106444429D01*
X189809357Y-106515857D01*
X190309357Y-106515857D01*
X192309357Y-108201571D02*
X192452214Y-108487286D01*
X190880785Y-109701571D02*
X191737928Y-109701571D01*
X191309356Y-109701571D02*
X191309356Y-108201571D01*
X191452213Y-108415857D01*
X191595071Y-108558714D01*
X191737928Y-108630143D01*
X190380785Y-108201571D02*
X189380785Y-108201571D01*
X190023642Y-109701571D01*
X197973214Y-112629071D02*
X198473214Y-111914786D01*
X198830357Y-112629071D02*
X198830357Y-111129071D01*
X198258929Y-111129071D01*
X198116071Y-111200500D01*
X198044643Y-111271929D01*
X197973214Y-111414786D01*
X197973214Y-111629071D01*
X198044643Y-111771929D01*
X198116071Y-111843357D01*
X198258929Y-111914786D01*
X198830357Y-111914786D01*
X199187500Y-110870500D02*
X197687500Y-110870500D01*
X189626928Y-111994071D02*
X190484071Y-111994071D01*
X190055499Y-111994071D02*
X190055499Y-110494071D01*
X190198356Y-110708357D01*
X190341214Y-110851214D01*
X190484071Y-110922643D01*
D12*
X194631500Y-110713500D02*
X195131500Y-110713500D01*
X195131500Y-111663500D02*
X194631500Y-111663500D01*
X194631500Y-109443500D02*
X195131500Y-109443500D01*
X195131500Y-110393500D02*
X194631500Y-110393500D01*
M02*
