G04 #@! TF.FileFunction,Soldermask,Top*
%FSLAX46Y46*%
G04 Gerber Fmt 4.6, Leading zero omitted, Abs format (unit mm)*
G04 Created by KiCad (PCBNEW 4.0.2+dfsg1-stable) date Tue 16 May 2017 12:42:15 BST*
%MOMM*%
G01*
G04 APERTURE LIST*
%ADD10C,0.100000*%
%ADD11R,1.130000X0.700000*%
%ADD12R,0.700000X1.130000*%
%ADD13R,1.650000X1.650000*%
%ADD14R,0.800000X0.900000*%
%ADD15R,0.700000X0.900000*%
%ADD16C,1.924000*%
%ADD17R,2.127200X2.432000*%
%ADD18O,2.127200X2.432000*%
G04 APERTURE END LIST*
D10*
D11*
X193234000Y-108220000D03*
X193234000Y-108720000D03*
X193234000Y-109220000D03*
X193234000Y-109720000D03*
X193234000Y-110220000D03*
D12*
X194199000Y-111185000D03*
X194699000Y-111185000D03*
X195199000Y-111185000D03*
X195699000Y-111185000D03*
X196199000Y-111185000D03*
D11*
X197164000Y-110220000D03*
X197164000Y-109720000D03*
X197164000Y-109220000D03*
X197164000Y-108720000D03*
X197164000Y-108220000D03*
D12*
X196199000Y-107255000D03*
X195699000Y-107255000D03*
X195199000Y-107255000D03*
X194699000Y-107255000D03*
X194199000Y-107255000D03*
D13*
X195824000Y-109845000D03*
X195824000Y-108595000D03*
X194574000Y-109845000D03*
X194574000Y-108595000D03*
D14*
X191948500Y-110371000D03*
D15*
X190948500Y-110371000D03*
X191448500Y-110371000D03*
D14*
X190448500Y-110371000D03*
D15*
X191448500Y-111371000D03*
D14*
X191948500Y-111371000D03*
D15*
X190948500Y-111371000D03*
D14*
X190448500Y-111371000D03*
X198576500Y-108196000D03*
D15*
X199576500Y-108196000D03*
X199076500Y-108196000D03*
D14*
X200076500Y-108196000D03*
D15*
X199076500Y-107196000D03*
D14*
X198576500Y-107196000D03*
D15*
X199576500Y-107196000D03*
D14*
X200076500Y-107196000D03*
D16*
X190119000Y-116840000D03*
X192659000Y-116840000D03*
X195199000Y-116840000D03*
X197739000Y-116840000D03*
X200279000Y-116840000D03*
X200279000Y-101600000D03*
X197739000Y-101600000D03*
X195199000Y-101600000D03*
X192659000Y-101600000D03*
X190119000Y-101600000D03*
D17*
X190119000Y-114300000D03*
D18*
X192659000Y-114300000D03*
X195199000Y-114300000D03*
X197739000Y-114300000D03*
X200279000Y-114300000D03*
D17*
X200279000Y-104140000D03*
D18*
X197739000Y-104140000D03*
X195199000Y-104140000D03*
X192659000Y-104140000D03*
X190119000Y-104140000D03*
M02*
