G04 #@! TF.FileFunction,Copper,L2,Bot,Signal*
%FSLAX46Y46*%
G04 Gerber Fmt 4.6, Leading zero omitted, Abs format (unit mm)*
G04 Created by KiCad (PCBNEW 4.0.2+dfsg1-stable) date Tue 16 May 2017 12:42:15 BST*
%MOMM*%
G01*
G04 APERTURE LIST*
%ADD10C,0.100000*%
%ADD11C,1.524000*%
%ADD12R,0.600000X0.500000*%
%ADD13R,1.727200X2.032000*%
%ADD14O,1.727200X2.032000*%
%ADD15C,0.650000*%
%ADD16C,0.152400*%
G04 APERTURE END LIST*
D10*
D11*
X200279000Y-111823500D03*
D12*
X195431500Y-111188500D03*
X194331500Y-111188500D03*
D11*
X190119000Y-116840000D03*
X192659000Y-116840000D03*
X195199000Y-116840000D03*
X197739000Y-116840000D03*
X200279000Y-116840000D03*
X200279000Y-101600000D03*
X197739000Y-101600000D03*
X195199000Y-101600000D03*
X192659000Y-101600000D03*
X190119000Y-101600000D03*
D13*
X190119000Y-114300000D03*
D14*
X192659000Y-114300000D03*
X195199000Y-114300000D03*
X197739000Y-114300000D03*
X200279000Y-114300000D03*
D13*
X200279000Y-104140000D03*
D14*
X197739000Y-104140000D03*
X195199000Y-104140000D03*
X192659000Y-104140000D03*
X190119000Y-104140000D03*
D12*
X195431500Y-109918500D03*
X194331500Y-109918500D03*
D15*
X196913500Y-112141000D03*
X195326000Y-112331500D03*
X193294000Y-107251500D03*
X193230500Y-111061500D03*
X198374000Y-109029500D03*
X190373000Y-112522000D03*
X193294000Y-112014000D03*
X199453500Y-106108500D03*
X198628000Y-106108500D03*
X197294500Y-106172000D03*
X198247000Y-110236000D03*
X194500500Y-112331500D03*
D16*
X195431500Y-109918500D02*
X195453000Y-109918500D01*
X195453000Y-109918500D02*
X196913500Y-111379000D01*
X196913500Y-111379000D02*
X196913500Y-112141000D01*
X190119000Y-104140000D02*
X190119000Y-105600500D01*
X194225000Y-108712000D02*
X195431500Y-109918500D01*
X193230500Y-108712000D02*
X194225000Y-108712000D01*
X190119000Y-105600500D02*
X193230500Y-108712000D01*
X194331500Y-109918500D02*
X194331500Y-110088500D01*
X194331500Y-110088500D02*
X195431500Y-111188500D01*
X195431500Y-111188500D02*
X195431500Y-112226000D01*
X195431500Y-112226000D02*
X195326000Y-112331500D01*
X200279000Y-114300000D02*
X200279000Y-114808000D01*
X197739000Y-114300000D02*
X197739000Y-110744000D01*
X194246500Y-107251500D02*
X193294000Y-107251500D01*
X197739000Y-110744000D02*
X194246500Y-107251500D01*
X197739000Y-114300000D02*
X197739000Y-113601500D01*
X192659000Y-111188500D02*
X192659000Y-114300000D01*
X192786000Y-111061500D02*
X192659000Y-111188500D01*
X193230500Y-111061500D02*
X192786000Y-111061500D01*
X200279000Y-107124500D02*
X200279000Y-104140000D01*
X198374000Y-109029500D02*
X200279000Y-107124500D01*
X200279000Y-104140000D02*
X200279000Y-104267000D01*
X190119000Y-116840000D02*
X190373000Y-116840000D01*
X190373000Y-116840000D02*
X191389000Y-115824000D01*
X191389000Y-115824000D02*
X191389000Y-113030000D01*
X191389000Y-113030000D02*
X190881000Y-112522000D01*
X190881000Y-112522000D02*
X190373000Y-112522000D01*
X192659000Y-116840000D02*
X192659000Y-116395500D01*
X199136000Y-115697000D02*
X200279000Y-116840000D01*
X194500500Y-115697000D02*
X199136000Y-115697000D01*
X193929000Y-115125500D02*
X194500500Y-115697000D01*
X193929000Y-112649000D02*
X193929000Y-115125500D01*
X193294000Y-112014000D02*
X193929000Y-112649000D01*
X200279000Y-116840000D02*
X200215500Y-116840000D01*
X200279000Y-116840000D02*
X200152000Y-116840000D01*
X199009000Y-102870000D02*
X197739000Y-101600000D01*
X199009000Y-105664000D02*
X199009000Y-102870000D01*
X199453500Y-106108500D02*
X199009000Y-105664000D01*
X193802000Y-102743000D02*
X192659000Y-101600000D01*
X195707000Y-102743000D02*
X193802000Y-102743000D01*
X196469000Y-103505000D02*
X195707000Y-102743000D01*
X196469000Y-105029000D02*
X196469000Y-103505000D01*
X197040500Y-105600500D02*
X196469000Y-105029000D01*
X198120000Y-105600500D02*
X197040500Y-105600500D01*
X198628000Y-106108500D02*
X198120000Y-105600500D01*
X192659000Y-101600000D02*
X192659000Y-101663500D01*
X192659000Y-101600000D02*
X192659000Y-101346000D01*
X192659000Y-101727000D02*
X192659000Y-101600000D01*
X197294500Y-106172000D02*
X192151000Y-106172000D01*
X192151000Y-106172000D02*
X191389000Y-105410000D01*
X191389000Y-105410000D02*
X191389000Y-102870000D01*
X191389000Y-102870000D02*
X190119000Y-101600000D01*
X190119000Y-101600000D02*
X190119000Y-101981000D01*
X198247000Y-110236000D02*
X199834500Y-111823500D01*
X199834500Y-111823500D02*
X200279000Y-111823500D01*
X194500500Y-111357500D02*
X194500500Y-112331500D01*
X194500500Y-111357500D02*
X194331500Y-111188500D01*
M02*
