%FSLAX45Y45*%
G04 Gerber Fmt 4.5, Leading zero omitted, Abs format (unit mm)*
G04 Created by KiCad (PCBNEW 4.0.2+dfsg1-stable) date Tue 16 May 2017 12:42:10 BST*
%MOMM*%
G01*
G04 APERTURE LIST*
%ADD10C,0.127000*%
%ADD11C,0.150000*%
%ADD12C,0.200000*%
%ADD13C,0.300000*%
G04 APERTURE END LIST*
D10*
D11*
X20148550Y-9969500D02*
X20148550Y-11874500D01*
X18884900Y-9969500D02*
X20148550Y-9969500D01*
X18884900Y-11874500D02*
X20148550Y-11874500D01*
X18884900Y-9969500D02*
X18884900Y-11874500D01*
D12*
X19012300Y-11227200D02*
X19062300Y-11277200D01*
X19062300Y-11227200D02*
X19012300Y-11277200D01*
X19298050Y-11081150D02*
X19348050Y-11131150D01*
X19348050Y-11081150D02*
X19298050Y-11131150D01*
X19304400Y-10700150D02*
X19354400Y-10750150D01*
X19354400Y-10700150D02*
X19304400Y-10750150D01*
X19304400Y-11176400D02*
X19354400Y-11226400D01*
X19354400Y-11176400D02*
X19304400Y-11226400D01*
X19425050Y-11208150D02*
X19475050Y-11258150D01*
X19475050Y-11208150D02*
X19425050Y-11258150D01*
X19507600Y-11208150D02*
X19557600Y-11258150D01*
X19557600Y-11208150D02*
X19507600Y-11258150D01*
X19666350Y-11189100D02*
X19716350Y-11239100D01*
X19716350Y-11189100D02*
X19666350Y-11239100D01*
X19704450Y-10592200D02*
X19754450Y-10642200D01*
X19754450Y-10592200D02*
X19704450Y-10642200D01*
X19799700Y-10998600D02*
X19849700Y-11048600D01*
X19849700Y-10998600D02*
X19799700Y-11048600D01*
X19812400Y-10877950D02*
X19862400Y-10927950D01*
X19862400Y-10877950D02*
X19812400Y-10927950D01*
X19837800Y-10585850D02*
X19887800Y-10635850D01*
X19887800Y-10585850D02*
X19837800Y-10635850D01*
X19920350Y-10585850D02*
X19970350Y-10635850D01*
X19970350Y-10585850D02*
X19920350Y-10635850D01*
X19051900Y-10160000D02*
G75*
G03X19051900Y-10160000I-40000J0D01*
G01*
X19051900Y-11684000D02*
G75*
G03X19051900Y-11684000I-40000J0D01*
G01*
X19305900Y-10160000D02*
G75*
G03X19305900Y-10160000I-40000J0D01*
G01*
X19305900Y-11684000D02*
G75*
G03X19305900Y-11684000I-40000J0D01*
G01*
X19559900Y-10160000D02*
G75*
G03X19559900Y-10160000I-40000J0D01*
G01*
X19559900Y-11684000D02*
G75*
G03X19559900Y-11684000I-40000J0D01*
G01*
X19813900Y-10160000D02*
G75*
G03X19813900Y-10160000I-40000J0D01*
G01*
X19813900Y-11684000D02*
G75*
G03X19813900Y-11684000I-40000J0D01*
G01*
X20067900Y-10160000D02*
G75*
G03X20067900Y-10160000I-40000J0D01*
G01*
X20067900Y-11684000D02*
G75*
G03X20067900Y-11684000I-40000J0D01*
G01*
X19011900Y-10363200D02*
X19011900Y-10464800D01*
X18961100Y-10414000D02*
X19062700Y-10414000D01*
X19011900Y-11379200D02*
X19011900Y-11480800D01*
X18961100Y-11430000D02*
X19062700Y-11430000D01*
X19265900Y-10363200D02*
X19265900Y-10464800D01*
X19215100Y-10414000D02*
X19316700Y-10414000D01*
X19265900Y-11379200D02*
X19265900Y-11480800D01*
X19215100Y-11430000D02*
X19316700Y-11430000D01*
X19519900Y-10363200D02*
X19519900Y-10464800D01*
X19469100Y-10414000D02*
X19570700Y-10414000D01*
X19519900Y-11379200D02*
X19519900Y-11480800D01*
X19469100Y-11430000D02*
X19570700Y-11430000D01*
X19773900Y-10363200D02*
X19773900Y-10464800D01*
X19723100Y-10414000D02*
X19824700Y-10414000D01*
X19773900Y-11379200D02*
X19773900Y-11480800D01*
X19723100Y-11430000D02*
X19824700Y-11430000D01*
X20027900Y-10363200D02*
X20027900Y-10464800D01*
X19977100Y-10414000D02*
X20078700Y-10414000D01*
X20027900Y-11379200D02*
X20027900Y-11480800D01*
X19977100Y-11430000D02*
X20078700Y-11430000D01*
D13*
X19148829Y-12347714D02*
X19148829Y-12047714D01*
X19220257Y-12047714D01*
X19263114Y-12062000D01*
X19291686Y-12090571D01*
X19305971Y-12119143D01*
X19320257Y-12176286D01*
X19320257Y-12219143D01*
X19305971Y-12276286D01*
X19291686Y-12304857D01*
X19263114Y-12333429D01*
X19220257Y-12347714D01*
X19148829Y-12347714D01*
X19448829Y-12347714D02*
X19448829Y-12147714D01*
X19448829Y-12204857D02*
X19463114Y-12176286D01*
X19477400Y-12162000D01*
X19505971Y-12147714D01*
X19534543Y-12147714D01*
X19634543Y-12347714D02*
X19634543Y-12147714D01*
X19634543Y-12047714D02*
X19620257Y-12062000D01*
X19634543Y-12076286D01*
X19648829Y-12062000D01*
X19634543Y-12047714D01*
X19634543Y-12076286D01*
X19820257Y-12347714D02*
X19791686Y-12333429D01*
X19777400Y-12304857D01*
X19777400Y-12047714D01*
X19977400Y-12347714D02*
X19948829Y-12333429D01*
X19934543Y-12304857D01*
X19934543Y-12047714D01*
X20320257Y-12347714D02*
X20320257Y-12047714D01*
X20420257Y-12262000D01*
X20520257Y-12047714D01*
X20520257Y-12347714D01*
X20791686Y-12347714D02*
X20791686Y-12190571D01*
X20777400Y-12162000D01*
X20748829Y-12147714D01*
X20691686Y-12147714D01*
X20663114Y-12162000D01*
X20791686Y-12333429D02*
X20763114Y-12347714D01*
X20691686Y-12347714D01*
X20663114Y-12333429D01*
X20648829Y-12304857D01*
X20648829Y-12276286D01*
X20663114Y-12247714D01*
X20691686Y-12233429D01*
X20763114Y-12233429D01*
X20791686Y-12219143D01*
X20934543Y-12147714D02*
X20934543Y-12447714D01*
X20934543Y-12162000D02*
X20963114Y-12147714D01*
X21020257Y-12147714D01*
X21048829Y-12162000D01*
X21063114Y-12176286D01*
X21077400Y-12204857D01*
X21077400Y-12290571D01*
X21063114Y-12319143D01*
X21048829Y-12333429D01*
X21020257Y-12347714D01*
X20963114Y-12347714D01*
X20934543Y-12333429D01*
X21205971Y-12319143D02*
X21220257Y-12333429D01*
X21205971Y-12347714D01*
X21191686Y-12333429D01*
X21205971Y-12319143D01*
X21205971Y-12347714D01*
X21205971Y-12162000D02*
X21220257Y-12176286D01*
X21205971Y-12190571D01*
X21191686Y-12176286D01*
X21205971Y-12162000D01*
X21205971Y-12190571D01*
X18827400Y-12817000D02*
X18877400Y-12867000D01*
X18877400Y-12817000D02*
X18827400Y-12867000D01*
X19205971Y-12677714D02*
X19234543Y-12677714D01*
X19263114Y-12692000D01*
X19277400Y-12706286D01*
X19291686Y-12734857D01*
X19305971Y-12792000D01*
X19305971Y-12863429D01*
X19291686Y-12920571D01*
X19277400Y-12949143D01*
X19263114Y-12963429D01*
X19234543Y-12977714D01*
X19205971Y-12977714D01*
X19177400Y-12963429D01*
X19163114Y-12949143D01*
X19148829Y-12920571D01*
X19134543Y-12863429D01*
X19134543Y-12792000D01*
X19148829Y-12734857D01*
X19163114Y-12706286D01*
X19177400Y-12692000D01*
X19205971Y-12677714D01*
X19434543Y-12949143D02*
X19448829Y-12963429D01*
X19434543Y-12977714D01*
X19420257Y-12963429D01*
X19434543Y-12949143D01*
X19434543Y-12977714D01*
X19720257Y-12677714D02*
X19577400Y-12677714D01*
X19563114Y-12820571D01*
X19577400Y-12806286D01*
X19605971Y-12792000D01*
X19677400Y-12792000D01*
X19705971Y-12806286D01*
X19720257Y-12820571D01*
X19734543Y-12849143D01*
X19734543Y-12920571D01*
X19720257Y-12949143D01*
X19705971Y-12963429D01*
X19677400Y-12977714D01*
X19605971Y-12977714D01*
X19577400Y-12963429D01*
X19563114Y-12949143D01*
X19920257Y-12677714D02*
X19948829Y-12677714D01*
X19977400Y-12692000D01*
X19991686Y-12706286D01*
X20005971Y-12734857D01*
X20020257Y-12792000D01*
X20020257Y-12863429D01*
X20005971Y-12920571D01*
X19991686Y-12949143D01*
X19977400Y-12963429D01*
X19948829Y-12977714D01*
X19920257Y-12977714D01*
X19891686Y-12963429D01*
X19877400Y-12949143D01*
X19863114Y-12920571D01*
X19848829Y-12863429D01*
X19848829Y-12792000D01*
X19863114Y-12734857D01*
X19877400Y-12706286D01*
X19891686Y-12692000D01*
X19920257Y-12677714D01*
X20148829Y-12977714D02*
X20148829Y-12777714D01*
X20148829Y-12806286D02*
X20163114Y-12792000D01*
X20191686Y-12777714D01*
X20234543Y-12777714D01*
X20263114Y-12792000D01*
X20277400Y-12820571D01*
X20277400Y-12977714D01*
X20277400Y-12820571D02*
X20291686Y-12792000D01*
X20320257Y-12777714D01*
X20363114Y-12777714D01*
X20391686Y-12792000D01*
X20405971Y-12820571D01*
X20405971Y-12977714D01*
X20548829Y-12977714D02*
X20548829Y-12777714D01*
X20548829Y-12806286D02*
X20563114Y-12792000D01*
X20591686Y-12777714D01*
X20634543Y-12777714D01*
X20663114Y-12792000D01*
X20677400Y-12820571D01*
X20677400Y-12977714D01*
X20677400Y-12820571D02*
X20691686Y-12792000D01*
X20720257Y-12777714D01*
X20763114Y-12777714D01*
X20791686Y-12792000D01*
X20805971Y-12820571D01*
X20805971Y-12977714D01*
X21391686Y-12663429D02*
X21134543Y-13049143D01*
X21777400Y-12677714D02*
X21805971Y-12677714D01*
X21834543Y-12692000D01*
X21848828Y-12706286D01*
X21863114Y-12734857D01*
X21877400Y-12792000D01*
X21877400Y-12863429D01*
X21863114Y-12920571D01*
X21848828Y-12949143D01*
X21834543Y-12963429D01*
X21805971Y-12977714D01*
X21777400Y-12977714D01*
X21748828Y-12963429D01*
X21734543Y-12949143D01*
X21720257Y-12920571D01*
X21705971Y-12863429D01*
X21705971Y-12792000D01*
X21720257Y-12734857D01*
X21734543Y-12706286D01*
X21748828Y-12692000D01*
X21777400Y-12677714D01*
X22005971Y-12949143D02*
X22020257Y-12963429D01*
X22005971Y-12977714D01*
X21991686Y-12963429D01*
X22005971Y-12949143D01*
X22005971Y-12977714D01*
X22205971Y-12677714D02*
X22234543Y-12677714D01*
X22263114Y-12692000D01*
X22277400Y-12706286D01*
X22291686Y-12734857D01*
X22305971Y-12792000D01*
X22305971Y-12863429D01*
X22291686Y-12920571D01*
X22277400Y-12949143D01*
X22263114Y-12963429D01*
X22234543Y-12977714D01*
X22205971Y-12977714D01*
X22177400Y-12963429D01*
X22163114Y-12949143D01*
X22148828Y-12920571D01*
X22134543Y-12863429D01*
X22134543Y-12792000D01*
X22148828Y-12734857D01*
X22163114Y-12706286D01*
X22177400Y-12692000D01*
X22205971Y-12677714D01*
X22420257Y-12706286D02*
X22434543Y-12692000D01*
X22463114Y-12677714D01*
X22534543Y-12677714D01*
X22563114Y-12692000D01*
X22577400Y-12706286D01*
X22591685Y-12734857D01*
X22591685Y-12763429D01*
X22577400Y-12806286D01*
X22405971Y-12977714D01*
X22591685Y-12977714D01*
X22777400Y-12677714D02*
X22805971Y-12677714D01*
X22834543Y-12692000D01*
X22848828Y-12706286D01*
X22863114Y-12734857D01*
X22877400Y-12792000D01*
X22877400Y-12863429D01*
X22863114Y-12920571D01*
X22848828Y-12949143D01*
X22834543Y-12963429D01*
X22805971Y-12977714D01*
X22777400Y-12977714D01*
X22748828Y-12963429D01*
X22734543Y-12949143D01*
X22720257Y-12920571D01*
X22705971Y-12863429D01*
X22705971Y-12792000D01*
X22720257Y-12734857D01*
X22734543Y-12706286D01*
X22748828Y-12692000D01*
X22777400Y-12677714D01*
X22991686Y-12677714D02*
X22991686Y-12734857D01*
X23105971Y-12677714D02*
X23105971Y-12734857D01*
X23548828Y-13092000D02*
X23534543Y-13077714D01*
X23505971Y-13034857D01*
X23491685Y-13006286D01*
X23477400Y-12963429D01*
X23463114Y-12892000D01*
X23463114Y-12834857D01*
X23477400Y-12763429D01*
X23491685Y-12720571D01*
X23505971Y-12692000D01*
X23534543Y-12649143D01*
X23548828Y-12634857D01*
X23820257Y-12977714D02*
X23648828Y-12977714D01*
X23734543Y-12977714D02*
X23734543Y-12677714D01*
X23705971Y-12720571D01*
X23677400Y-12749143D01*
X23648828Y-12763429D01*
X23934543Y-12706286D02*
X23948828Y-12692000D01*
X23977400Y-12677714D01*
X24048828Y-12677714D01*
X24077400Y-12692000D01*
X24091685Y-12706286D01*
X24105971Y-12734857D01*
X24105971Y-12763429D01*
X24091685Y-12806286D01*
X23920257Y-12977714D01*
X24105971Y-12977714D01*
X24463114Y-12977714D02*
X24463114Y-12677714D01*
X24591685Y-12977714D02*
X24591685Y-12820571D01*
X24577400Y-12792000D01*
X24548828Y-12777714D01*
X24505971Y-12777714D01*
X24477400Y-12792000D01*
X24463114Y-12806286D01*
X24777400Y-12977714D02*
X24748828Y-12963429D01*
X24734543Y-12949143D01*
X24720257Y-12920571D01*
X24720257Y-12834857D01*
X24734543Y-12806286D01*
X24748828Y-12792000D01*
X24777400Y-12777714D01*
X24820257Y-12777714D01*
X24848828Y-12792000D01*
X24863114Y-12806286D01*
X24877400Y-12834857D01*
X24877400Y-12920571D01*
X24863114Y-12949143D01*
X24848828Y-12963429D01*
X24820257Y-12977714D01*
X24777400Y-12977714D01*
X25048828Y-12977714D02*
X25020257Y-12963429D01*
X25005971Y-12934857D01*
X25005971Y-12677714D01*
X25277400Y-12963429D02*
X25248828Y-12977714D01*
X25191686Y-12977714D01*
X25163114Y-12963429D01*
X25148828Y-12934857D01*
X25148828Y-12820571D01*
X25163114Y-12792000D01*
X25191686Y-12777714D01*
X25248828Y-12777714D01*
X25277400Y-12792000D01*
X25291686Y-12820571D01*
X25291686Y-12849143D01*
X25148828Y-12877714D01*
X25405971Y-12963429D02*
X25434543Y-12977714D01*
X25491686Y-12977714D01*
X25520257Y-12963429D01*
X25534543Y-12934857D01*
X25534543Y-12920571D01*
X25520257Y-12892000D01*
X25491686Y-12877714D01*
X25448828Y-12877714D01*
X25420257Y-12863429D01*
X25405971Y-12834857D01*
X25405971Y-12820571D01*
X25420257Y-12792000D01*
X25448828Y-12777714D01*
X25491686Y-12777714D01*
X25520257Y-12792000D01*
X25634543Y-13092000D02*
X25648828Y-13077714D01*
X25677400Y-13034857D01*
X25691686Y-13006286D01*
X25705971Y-12963429D01*
X25720257Y-12892000D01*
X25720257Y-12834857D01*
X25705971Y-12763429D01*
X25691686Y-12720571D01*
X25677400Y-12692000D01*
X25648828Y-12649143D01*
X25634543Y-12634857D01*
X18877400Y-13238000D02*
G75*
G03X18877400Y-13238000I-40000J0D01*
G01*
X19205971Y-13073714D02*
X19234543Y-13073714D01*
X19263114Y-13088000D01*
X19277400Y-13102286D01*
X19291686Y-13130857D01*
X19305971Y-13188000D01*
X19305971Y-13259429D01*
X19291686Y-13316571D01*
X19277400Y-13345143D01*
X19263114Y-13359429D01*
X19234543Y-13373714D01*
X19205971Y-13373714D01*
X19177400Y-13359429D01*
X19163114Y-13345143D01*
X19148829Y-13316571D01*
X19134543Y-13259429D01*
X19134543Y-13188000D01*
X19148829Y-13130857D01*
X19163114Y-13102286D01*
X19177400Y-13088000D01*
X19205971Y-13073714D01*
X19434543Y-13345143D02*
X19448829Y-13359429D01*
X19434543Y-13373714D01*
X19420257Y-13359429D01*
X19434543Y-13345143D01*
X19434543Y-13373714D01*
X19620257Y-13202286D02*
X19591686Y-13188000D01*
X19577400Y-13173714D01*
X19563114Y-13145143D01*
X19563114Y-13130857D01*
X19577400Y-13102286D01*
X19591686Y-13088000D01*
X19620257Y-13073714D01*
X19677400Y-13073714D01*
X19705971Y-13088000D01*
X19720257Y-13102286D01*
X19734543Y-13130857D01*
X19734543Y-13145143D01*
X19720257Y-13173714D01*
X19705971Y-13188000D01*
X19677400Y-13202286D01*
X19620257Y-13202286D01*
X19591686Y-13216571D01*
X19577400Y-13230857D01*
X19563114Y-13259429D01*
X19563114Y-13316571D01*
X19577400Y-13345143D01*
X19591686Y-13359429D01*
X19620257Y-13373714D01*
X19677400Y-13373714D01*
X19705971Y-13359429D01*
X19720257Y-13345143D01*
X19734543Y-13316571D01*
X19734543Y-13259429D01*
X19720257Y-13230857D01*
X19705971Y-13216571D01*
X19677400Y-13202286D01*
X19920257Y-13073714D02*
X19948829Y-13073714D01*
X19977400Y-13088000D01*
X19991686Y-13102286D01*
X20005971Y-13130857D01*
X20020257Y-13188000D01*
X20020257Y-13259429D01*
X20005971Y-13316571D01*
X19991686Y-13345143D01*
X19977400Y-13359429D01*
X19948829Y-13373714D01*
X19920257Y-13373714D01*
X19891686Y-13359429D01*
X19877400Y-13345143D01*
X19863114Y-13316571D01*
X19848829Y-13259429D01*
X19848829Y-13188000D01*
X19863114Y-13130857D01*
X19877400Y-13102286D01*
X19891686Y-13088000D01*
X19920257Y-13073714D01*
X20148829Y-13373714D02*
X20148829Y-13173714D01*
X20148829Y-13202286D02*
X20163114Y-13188000D01*
X20191686Y-13173714D01*
X20234543Y-13173714D01*
X20263114Y-13188000D01*
X20277400Y-13216571D01*
X20277400Y-13373714D01*
X20277400Y-13216571D02*
X20291686Y-13188000D01*
X20320257Y-13173714D01*
X20363114Y-13173714D01*
X20391686Y-13188000D01*
X20405971Y-13216571D01*
X20405971Y-13373714D01*
X20548829Y-13373714D02*
X20548829Y-13173714D01*
X20548829Y-13202286D02*
X20563114Y-13188000D01*
X20591686Y-13173714D01*
X20634543Y-13173714D01*
X20663114Y-13188000D01*
X20677400Y-13216571D01*
X20677400Y-13373714D01*
X20677400Y-13216571D02*
X20691686Y-13188000D01*
X20720257Y-13173714D01*
X20763114Y-13173714D01*
X20791686Y-13188000D01*
X20805971Y-13216571D01*
X20805971Y-13373714D01*
X21391686Y-13059429D02*
X21134543Y-13445143D01*
X21777400Y-13073714D02*
X21805971Y-13073714D01*
X21834543Y-13088000D01*
X21848828Y-13102286D01*
X21863114Y-13130857D01*
X21877400Y-13188000D01*
X21877400Y-13259429D01*
X21863114Y-13316571D01*
X21848828Y-13345143D01*
X21834543Y-13359429D01*
X21805971Y-13373714D01*
X21777400Y-13373714D01*
X21748828Y-13359429D01*
X21734543Y-13345143D01*
X21720257Y-13316571D01*
X21705971Y-13259429D01*
X21705971Y-13188000D01*
X21720257Y-13130857D01*
X21734543Y-13102286D01*
X21748828Y-13088000D01*
X21777400Y-13073714D01*
X22005971Y-13345143D02*
X22020257Y-13359429D01*
X22005971Y-13373714D01*
X21991686Y-13359429D01*
X22005971Y-13345143D01*
X22005971Y-13373714D01*
X22205971Y-13073714D02*
X22234543Y-13073714D01*
X22263114Y-13088000D01*
X22277400Y-13102286D01*
X22291686Y-13130857D01*
X22305971Y-13188000D01*
X22305971Y-13259429D01*
X22291686Y-13316571D01*
X22277400Y-13345143D01*
X22263114Y-13359429D01*
X22234543Y-13373714D01*
X22205971Y-13373714D01*
X22177400Y-13359429D01*
X22163114Y-13345143D01*
X22148828Y-13316571D01*
X22134543Y-13259429D01*
X22134543Y-13188000D01*
X22148828Y-13130857D01*
X22163114Y-13102286D01*
X22177400Y-13088000D01*
X22205971Y-13073714D01*
X22405971Y-13073714D02*
X22591685Y-13073714D01*
X22491685Y-13188000D01*
X22534543Y-13188000D01*
X22563114Y-13202286D01*
X22577400Y-13216571D01*
X22591685Y-13245143D01*
X22591685Y-13316571D01*
X22577400Y-13345143D01*
X22563114Y-13359429D01*
X22534543Y-13373714D01*
X22448828Y-13373714D01*
X22420257Y-13359429D01*
X22405971Y-13345143D01*
X22877400Y-13373714D02*
X22705971Y-13373714D01*
X22791685Y-13373714D02*
X22791685Y-13073714D01*
X22763114Y-13116571D01*
X22734543Y-13145143D01*
X22705971Y-13159429D01*
X22991686Y-13073714D02*
X22991686Y-13130857D01*
X23105971Y-13073714D02*
X23105971Y-13130857D01*
X23548828Y-13488000D02*
X23534543Y-13473714D01*
X23505971Y-13430857D01*
X23491685Y-13402286D01*
X23477400Y-13359429D01*
X23463114Y-13288000D01*
X23463114Y-13230857D01*
X23477400Y-13159429D01*
X23491685Y-13116571D01*
X23505971Y-13088000D01*
X23534543Y-13045143D01*
X23548828Y-13030857D01*
X23820257Y-13373714D02*
X23648828Y-13373714D01*
X23734543Y-13373714D02*
X23734543Y-13073714D01*
X23705971Y-13116571D01*
X23677400Y-13145143D01*
X23648828Y-13159429D01*
X24005971Y-13073714D02*
X24034543Y-13073714D01*
X24063114Y-13088000D01*
X24077400Y-13102286D01*
X24091685Y-13130857D01*
X24105971Y-13188000D01*
X24105971Y-13259429D01*
X24091685Y-13316571D01*
X24077400Y-13345143D01*
X24063114Y-13359429D01*
X24034543Y-13373714D01*
X24005971Y-13373714D01*
X23977400Y-13359429D01*
X23963114Y-13345143D01*
X23948828Y-13316571D01*
X23934543Y-13259429D01*
X23934543Y-13188000D01*
X23948828Y-13130857D01*
X23963114Y-13102286D01*
X23977400Y-13088000D01*
X24005971Y-13073714D01*
X24463114Y-13373714D02*
X24463114Y-13073714D01*
X24591685Y-13373714D02*
X24591685Y-13216571D01*
X24577400Y-13188000D01*
X24548828Y-13173714D01*
X24505971Y-13173714D01*
X24477400Y-13188000D01*
X24463114Y-13202286D01*
X24777400Y-13373714D02*
X24748828Y-13359429D01*
X24734543Y-13345143D01*
X24720257Y-13316571D01*
X24720257Y-13230857D01*
X24734543Y-13202286D01*
X24748828Y-13188000D01*
X24777400Y-13173714D01*
X24820257Y-13173714D01*
X24848828Y-13188000D01*
X24863114Y-13202286D01*
X24877400Y-13230857D01*
X24877400Y-13316571D01*
X24863114Y-13345143D01*
X24848828Y-13359429D01*
X24820257Y-13373714D01*
X24777400Y-13373714D01*
X25048828Y-13373714D02*
X25020257Y-13359429D01*
X25005971Y-13330857D01*
X25005971Y-13073714D01*
X25277400Y-13359429D02*
X25248828Y-13373714D01*
X25191686Y-13373714D01*
X25163114Y-13359429D01*
X25148828Y-13330857D01*
X25148828Y-13216571D01*
X25163114Y-13188000D01*
X25191686Y-13173714D01*
X25248828Y-13173714D01*
X25277400Y-13188000D01*
X25291686Y-13216571D01*
X25291686Y-13245143D01*
X25148828Y-13273714D01*
X25405971Y-13359429D02*
X25434543Y-13373714D01*
X25491686Y-13373714D01*
X25520257Y-13359429D01*
X25534543Y-13330857D01*
X25534543Y-13316571D01*
X25520257Y-13288000D01*
X25491686Y-13273714D01*
X25448828Y-13273714D01*
X25420257Y-13259429D01*
X25405971Y-13230857D01*
X25405971Y-13216571D01*
X25420257Y-13188000D01*
X25448828Y-13173714D01*
X25491686Y-13173714D01*
X25520257Y-13188000D01*
X25634543Y-13488000D02*
X25648828Y-13473714D01*
X25677400Y-13430857D01*
X25691686Y-13402286D01*
X25705971Y-13359429D01*
X25720257Y-13288000D01*
X25720257Y-13230857D01*
X25705971Y-13159429D01*
X25691686Y-13116571D01*
X25677400Y-13088000D01*
X25648828Y-13045143D01*
X25634543Y-13030857D01*
X18826600Y-13583200D02*
X18826600Y-13684800D01*
X18775800Y-13634000D02*
X18877400Y-13634000D01*
X19305971Y-13769714D02*
X19134543Y-13769714D01*
X19220257Y-13769714D02*
X19220257Y-13469714D01*
X19191686Y-13512571D01*
X19163114Y-13541143D01*
X19134543Y-13555429D01*
X19434543Y-13741143D02*
X19448829Y-13755429D01*
X19434543Y-13769714D01*
X19420257Y-13755429D01*
X19434543Y-13741143D01*
X19434543Y-13769714D01*
X19634543Y-13469714D02*
X19663114Y-13469714D01*
X19691686Y-13484000D01*
X19705971Y-13498286D01*
X19720257Y-13526857D01*
X19734543Y-13584000D01*
X19734543Y-13655429D01*
X19720257Y-13712571D01*
X19705971Y-13741143D01*
X19691686Y-13755429D01*
X19663114Y-13769714D01*
X19634543Y-13769714D01*
X19605971Y-13755429D01*
X19591686Y-13741143D01*
X19577400Y-13712571D01*
X19563114Y-13655429D01*
X19563114Y-13584000D01*
X19577400Y-13526857D01*
X19591686Y-13498286D01*
X19605971Y-13484000D01*
X19634543Y-13469714D01*
X19848829Y-13498286D02*
X19863114Y-13484000D01*
X19891686Y-13469714D01*
X19963114Y-13469714D01*
X19991686Y-13484000D01*
X20005971Y-13498286D01*
X20020257Y-13526857D01*
X20020257Y-13555429D01*
X20005971Y-13598286D01*
X19834543Y-13769714D01*
X20020257Y-13769714D01*
X20148829Y-13769714D02*
X20148829Y-13569714D01*
X20148829Y-13598286D02*
X20163114Y-13584000D01*
X20191686Y-13569714D01*
X20234543Y-13569714D01*
X20263114Y-13584000D01*
X20277400Y-13612571D01*
X20277400Y-13769714D01*
X20277400Y-13612571D02*
X20291686Y-13584000D01*
X20320257Y-13569714D01*
X20363114Y-13569714D01*
X20391686Y-13584000D01*
X20405971Y-13612571D01*
X20405971Y-13769714D01*
X20548829Y-13769714D02*
X20548829Y-13569714D01*
X20548829Y-13598286D02*
X20563114Y-13584000D01*
X20591686Y-13569714D01*
X20634543Y-13569714D01*
X20663114Y-13584000D01*
X20677400Y-13612571D01*
X20677400Y-13769714D01*
X20677400Y-13612571D02*
X20691686Y-13584000D01*
X20720257Y-13569714D01*
X20763114Y-13569714D01*
X20791686Y-13584000D01*
X20805971Y-13612571D01*
X20805971Y-13769714D01*
X21391686Y-13455429D02*
X21134543Y-13841143D01*
X21777400Y-13469714D02*
X21805971Y-13469714D01*
X21834543Y-13484000D01*
X21848828Y-13498286D01*
X21863114Y-13526857D01*
X21877400Y-13584000D01*
X21877400Y-13655429D01*
X21863114Y-13712571D01*
X21848828Y-13741143D01*
X21834543Y-13755429D01*
X21805971Y-13769714D01*
X21777400Y-13769714D01*
X21748828Y-13755429D01*
X21734543Y-13741143D01*
X21720257Y-13712571D01*
X21705971Y-13655429D01*
X21705971Y-13584000D01*
X21720257Y-13526857D01*
X21734543Y-13498286D01*
X21748828Y-13484000D01*
X21777400Y-13469714D01*
X22005971Y-13741143D02*
X22020257Y-13755429D01*
X22005971Y-13769714D01*
X21991686Y-13755429D01*
X22005971Y-13741143D01*
X22005971Y-13769714D01*
X22205971Y-13469714D02*
X22234543Y-13469714D01*
X22263114Y-13484000D01*
X22277400Y-13498286D01*
X22291686Y-13526857D01*
X22305971Y-13584000D01*
X22305971Y-13655429D01*
X22291686Y-13712571D01*
X22277400Y-13741143D01*
X22263114Y-13755429D01*
X22234543Y-13769714D01*
X22205971Y-13769714D01*
X22177400Y-13755429D01*
X22163114Y-13741143D01*
X22148828Y-13712571D01*
X22134543Y-13655429D01*
X22134543Y-13584000D01*
X22148828Y-13526857D01*
X22163114Y-13498286D01*
X22177400Y-13484000D01*
X22205971Y-13469714D01*
X22563114Y-13569714D02*
X22563114Y-13769714D01*
X22491685Y-13455429D02*
X22420257Y-13669714D01*
X22605971Y-13669714D01*
X22777400Y-13469714D02*
X22805971Y-13469714D01*
X22834543Y-13484000D01*
X22848828Y-13498286D01*
X22863114Y-13526857D01*
X22877400Y-13584000D01*
X22877400Y-13655429D01*
X22863114Y-13712571D01*
X22848828Y-13741143D01*
X22834543Y-13755429D01*
X22805971Y-13769714D01*
X22777400Y-13769714D01*
X22748828Y-13755429D01*
X22734543Y-13741143D01*
X22720257Y-13712571D01*
X22705971Y-13655429D01*
X22705971Y-13584000D01*
X22720257Y-13526857D01*
X22734543Y-13498286D01*
X22748828Y-13484000D01*
X22777400Y-13469714D01*
X22991686Y-13469714D02*
X22991686Y-13526857D01*
X23105971Y-13469714D02*
X23105971Y-13526857D01*
X23548828Y-13884000D02*
X23534543Y-13869714D01*
X23505971Y-13826857D01*
X23491685Y-13798286D01*
X23477400Y-13755429D01*
X23463114Y-13684000D01*
X23463114Y-13626857D01*
X23477400Y-13555429D01*
X23491685Y-13512571D01*
X23505971Y-13484000D01*
X23534543Y-13441143D01*
X23548828Y-13426857D01*
X23820257Y-13769714D02*
X23648828Y-13769714D01*
X23734543Y-13769714D02*
X23734543Y-13469714D01*
X23705971Y-13512571D01*
X23677400Y-13541143D01*
X23648828Y-13555429D01*
X24005971Y-13469714D02*
X24034543Y-13469714D01*
X24063114Y-13484000D01*
X24077400Y-13498286D01*
X24091685Y-13526857D01*
X24105971Y-13584000D01*
X24105971Y-13655429D01*
X24091685Y-13712571D01*
X24077400Y-13741143D01*
X24063114Y-13755429D01*
X24034543Y-13769714D01*
X24005971Y-13769714D01*
X23977400Y-13755429D01*
X23963114Y-13741143D01*
X23948828Y-13712571D01*
X23934543Y-13655429D01*
X23934543Y-13584000D01*
X23948828Y-13526857D01*
X23963114Y-13498286D01*
X23977400Y-13484000D01*
X24005971Y-13469714D01*
X24463114Y-13769714D02*
X24463114Y-13469714D01*
X24591685Y-13769714D02*
X24591685Y-13612571D01*
X24577400Y-13584000D01*
X24548828Y-13569714D01*
X24505971Y-13569714D01*
X24477400Y-13584000D01*
X24463114Y-13598286D01*
X24777400Y-13769714D02*
X24748828Y-13755429D01*
X24734543Y-13741143D01*
X24720257Y-13712571D01*
X24720257Y-13626857D01*
X24734543Y-13598286D01*
X24748828Y-13584000D01*
X24777400Y-13569714D01*
X24820257Y-13569714D01*
X24848828Y-13584000D01*
X24863114Y-13598286D01*
X24877400Y-13626857D01*
X24877400Y-13712571D01*
X24863114Y-13741143D01*
X24848828Y-13755429D01*
X24820257Y-13769714D01*
X24777400Y-13769714D01*
X25048828Y-13769714D02*
X25020257Y-13755429D01*
X25005971Y-13726857D01*
X25005971Y-13469714D01*
X25277400Y-13755429D02*
X25248828Y-13769714D01*
X25191686Y-13769714D01*
X25163114Y-13755429D01*
X25148828Y-13726857D01*
X25148828Y-13612571D01*
X25163114Y-13584000D01*
X25191686Y-13569714D01*
X25248828Y-13569714D01*
X25277400Y-13584000D01*
X25291686Y-13612571D01*
X25291686Y-13641143D01*
X25148828Y-13669714D01*
X25405971Y-13755429D02*
X25434543Y-13769714D01*
X25491686Y-13769714D01*
X25520257Y-13755429D01*
X25534543Y-13726857D01*
X25534543Y-13712571D01*
X25520257Y-13684000D01*
X25491686Y-13669714D01*
X25448828Y-13669714D01*
X25420257Y-13655429D01*
X25405971Y-13626857D01*
X25405971Y-13612571D01*
X25420257Y-13584000D01*
X25448828Y-13569714D01*
X25491686Y-13569714D01*
X25520257Y-13584000D01*
X25634543Y-13884000D02*
X25648828Y-13869714D01*
X25677400Y-13826857D01*
X25691686Y-13798286D01*
X25705971Y-13755429D01*
X25720257Y-13684000D01*
X25720257Y-13626857D01*
X25705971Y-13555429D01*
X25691686Y-13512571D01*
X25677400Y-13484000D01*
X25648828Y-13441143D01*
X25634543Y-13426857D01*
M02*
