M48
;DRILL file {KiCad 4.0.2+dfsg1-stable} date Tue 16 May 2017 12:42:08 BST
;FORMAT={-:-/ absolute / inch / decimal}
FMAT,2
INCH,TZ
T1C0.020
T2C0.031
T3C0.040
%
G90
G05
M72
T1
X7.495Y-4.43
X7.6075Y-4.3725
X7.61Y-4.2225
X7.61Y-4.41
X7.6575Y-4.4225
X7.69Y-4.4225
X7.7525Y-4.415
X7.7675Y-4.18
X7.805Y-4.34
X7.81Y-4.2925
X7.82Y-4.1775
X7.8525Y-4.1775
T2
X7.485Y-4.
X7.485Y-4.6
X7.585Y-4.
X7.585Y-4.6
X7.685Y-4.
X7.685Y-4.6
X7.785Y-4.
X7.785Y-4.6
X7.885Y-4.
X7.885Y-4.6
T3
X7.485Y-4.1
X7.485Y-4.5
X7.585Y-4.1
X7.585Y-4.5
X7.685Y-4.1
X7.685Y-4.5
X7.785Y-4.1
X7.785Y-4.5
X7.885Y-4.1
X7.885Y-4.5
T0
M30
