G04 #@! TF.FileFunction,Copper,L1,Top,Signal*
%FSLAX46Y46*%
G04 Gerber Fmt 4.6, Leading zero omitted, Abs format (unit mm)*
G04 Created by KiCad (PCBNEW 4.0.2+dfsg1-stable) date Tue 16 May 2017 12:42:15 BST*
%MOMM*%
G01*
G04 APERTURE LIST*
%ADD10C,0.100000*%
%ADD11R,0.730000X0.300000*%
%ADD12R,0.300000X0.730000*%
%ADD13R,1.250000X1.250000*%
%ADD14R,0.400000X0.500000*%
%ADD15R,0.300000X0.500000*%
%ADD16C,1.524000*%
%ADD17R,1.727200X2.032000*%
%ADD18O,1.727200X2.032000*%
%ADD19C,0.650000*%
%ADD20C,0.152400*%
%ADD21C,0.300000*%
G04 APERTURE END LIST*
D10*
D11*
X193234000Y-108220000D03*
X193234000Y-108720000D03*
X193234000Y-109220000D03*
X193234000Y-109720000D03*
X193234000Y-110220000D03*
D12*
X194199000Y-111185000D03*
X194699000Y-111185000D03*
X195199000Y-111185000D03*
X195699000Y-111185000D03*
X196199000Y-111185000D03*
D11*
X197164000Y-110220000D03*
X197164000Y-109720000D03*
X197164000Y-109220000D03*
X197164000Y-108720000D03*
X197164000Y-108220000D03*
D12*
X196199000Y-107255000D03*
X195699000Y-107255000D03*
X195199000Y-107255000D03*
X194699000Y-107255000D03*
X194199000Y-107255000D03*
D13*
X195824000Y-109845000D03*
X195824000Y-108595000D03*
X194574000Y-109845000D03*
X194574000Y-108595000D03*
D14*
X191948500Y-110371000D03*
D15*
X190948500Y-110371000D03*
X191448500Y-110371000D03*
D14*
X190448500Y-110371000D03*
D15*
X191448500Y-111371000D03*
D14*
X191948500Y-111371000D03*
D15*
X190948500Y-111371000D03*
D14*
X190448500Y-111371000D03*
X198576500Y-108196000D03*
D15*
X199576500Y-108196000D03*
X199076500Y-108196000D03*
D14*
X200076500Y-108196000D03*
D15*
X199076500Y-107196000D03*
D14*
X198576500Y-107196000D03*
D15*
X199576500Y-107196000D03*
D14*
X200076500Y-107196000D03*
D16*
X190119000Y-116840000D03*
X192659000Y-116840000D03*
X195199000Y-116840000D03*
X197739000Y-116840000D03*
X200279000Y-116840000D03*
X200279000Y-101600000D03*
X197739000Y-101600000D03*
X195199000Y-101600000D03*
X192659000Y-101600000D03*
X190119000Y-101600000D03*
D17*
X190119000Y-114300000D03*
D18*
X192659000Y-114300000D03*
X195199000Y-114300000D03*
X197739000Y-114300000D03*
X200279000Y-114300000D03*
D17*
X200279000Y-104140000D03*
D18*
X197739000Y-104140000D03*
X195199000Y-104140000D03*
X192659000Y-104140000D03*
X190119000Y-104140000D03*
D19*
X196913500Y-112141000D03*
X195326000Y-112331500D03*
X193294000Y-107251500D03*
X193230500Y-111061500D03*
X198374000Y-109029500D03*
X190373000Y-112522000D03*
X193294000Y-112014000D03*
X199453500Y-106108500D03*
X198628000Y-106108500D03*
X197294500Y-106172000D03*
X198247000Y-110236000D03*
X194500500Y-112331500D03*
D20*
X195699000Y-111815500D02*
X195699000Y-111185000D01*
X195961000Y-112077500D02*
X195699000Y-111815500D01*
X196850000Y-112077500D02*
X195961000Y-112077500D01*
X196913500Y-112141000D02*
X196850000Y-112077500D01*
D21*
X195199000Y-101600000D02*
X193802000Y-100203000D01*
X193802000Y-100203000D02*
X192151000Y-100203000D01*
X192151000Y-100203000D02*
X191389000Y-100965000D01*
X191389000Y-100965000D02*
X191389000Y-102870000D01*
X191389000Y-102870000D02*
X190119000Y-104140000D01*
D20*
X190119000Y-104140000D02*
X190119000Y-103886000D01*
X195326000Y-112331500D02*
X195357750Y-112299750D01*
X195357750Y-112299750D02*
X195326000Y-112331500D01*
X195326000Y-112331500D02*
X195326000Y-112268000D01*
D21*
X200279000Y-114300000D02*
X200279000Y-114173000D01*
X200279000Y-114173000D02*
X198882000Y-112776000D01*
X195199000Y-112141000D02*
X195199000Y-111185000D01*
X195834000Y-112776000D02*
X195326000Y-112268000D01*
X195326000Y-112268000D02*
X195199000Y-112141000D01*
X198882000Y-112776000D02*
X195834000Y-112776000D01*
D20*
X195199000Y-111185000D02*
X195199000Y-110470000D01*
X195199000Y-110470000D02*
X194574000Y-109845000D01*
X194574000Y-109845000D02*
X194574000Y-108595000D01*
X194574000Y-108595000D02*
X195824000Y-108595000D01*
X195824000Y-108595000D02*
X195824000Y-109845000D01*
X195824000Y-109845000D02*
X194574000Y-109845000D01*
X190119000Y-114300000D02*
X190119000Y-113855500D01*
X190119000Y-113855500D02*
X189611000Y-113347500D01*
X189611000Y-113347500D02*
X189611000Y-106997500D01*
X189611000Y-106997500D02*
X190817500Y-105791000D01*
X190817500Y-105791000D02*
X194119500Y-105791000D01*
X194119500Y-105791000D02*
X194699000Y-106370500D01*
X194699000Y-106370500D02*
X194699000Y-107255000D01*
X193297500Y-107255000D02*
X194199000Y-107255000D01*
X193294000Y-107251500D02*
X193297500Y-107255000D01*
X193234000Y-110220000D02*
X193234000Y-111058000D01*
X193234000Y-111058000D02*
X193230500Y-111061500D01*
X194199000Y-111185000D02*
X194199000Y-111744000D01*
X193929000Y-113030000D02*
X195199000Y-114300000D01*
X193929000Y-112014000D02*
X193929000Y-113030000D01*
X194199000Y-111744000D02*
X193929000Y-112014000D01*
X195199000Y-114300000D02*
X195058556Y-114300000D01*
X195199000Y-114300000D02*
X195135500Y-114300000D01*
X195199000Y-107255000D02*
X195199000Y-106299000D01*
X195199000Y-106299000D02*
X193040000Y-104140000D01*
X193040000Y-104140000D02*
X192659000Y-104140000D01*
X195699000Y-107255000D02*
X195699000Y-104640000D01*
X195699000Y-104640000D02*
X195199000Y-104140000D01*
X196199000Y-107255000D02*
X196199000Y-105680000D01*
X196199000Y-105680000D02*
X197739000Y-104140000D01*
X197164000Y-108720000D02*
X198064500Y-108720000D01*
X198064500Y-108720000D02*
X198374000Y-109029500D01*
X190373000Y-112522000D02*
X190448500Y-112446500D01*
X190448500Y-112446500D02*
X190448500Y-111371000D01*
X190948500Y-111371000D02*
X190948500Y-112335500D01*
X191389000Y-115570000D02*
X192659000Y-116840000D01*
X191389000Y-112776000D02*
X191389000Y-115570000D01*
X190948500Y-112335500D02*
X191389000Y-112776000D01*
X191000000Y-111498000D02*
X190996000Y-111498000D01*
X191452500Y-111823500D02*
X191452500Y-111375000D01*
X191452500Y-111375000D02*
X191448500Y-111371000D01*
X197739000Y-116840000D02*
X197548500Y-116840000D01*
X197548500Y-116840000D02*
X196405500Y-115697000D01*
X191452500Y-112141000D02*
X191452500Y-111823500D01*
X191452500Y-111823500D02*
X191452500Y-111633000D01*
X191833500Y-112522000D02*
X191452500Y-112141000D01*
X192849500Y-112522000D02*
X191833500Y-112522000D01*
X193929000Y-113601500D02*
X192849500Y-112522000D01*
X193929000Y-115125500D02*
X193929000Y-113601500D01*
X194500500Y-115697000D02*
X193929000Y-115125500D01*
X196405500Y-115697000D02*
X194500500Y-115697000D01*
X191948500Y-111371000D02*
X192651000Y-111371000D01*
X192651000Y-111371000D02*
X193294000Y-112014000D01*
X191948500Y-111371000D02*
X191952500Y-111371000D01*
X200279000Y-116840000D02*
X199707500Y-116840000D01*
X200076500Y-107196000D02*
X200076500Y-105842500D01*
X199009000Y-102870000D02*
X200279000Y-101600000D01*
X199009000Y-105473500D02*
X199009000Y-102870000D01*
X199072500Y-105537000D02*
X199009000Y-105473500D01*
X199771000Y-105537000D02*
X199072500Y-105537000D01*
X200076500Y-105842500D02*
X199771000Y-105537000D01*
X200279000Y-101600000D02*
X199961500Y-101600000D01*
X199576500Y-107196000D02*
X199576500Y-106231500D01*
X199576500Y-106231500D02*
X199453500Y-106108500D01*
X199076500Y-107196000D02*
X199076500Y-106557000D01*
X199076500Y-106557000D02*
X198628000Y-106108500D01*
X198576500Y-107196000D02*
X198576500Y-106946000D01*
X198576500Y-106946000D02*
X197802500Y-106172000D01*
X197802500Y-106172000D02*
X197294500Y-106172000D01*
X193234000Y-109720000D02*
X192599500Y-109720000D01*
X192599500Y-109720000D02*
X191948500Y-110371000D01*
X193234000Y-108720000D02*
X191889000Y-108720000D01*
X190948500Y-109660500D02*
X190948500Y-110371000D01*
X191889000Y-108720000D02*
X190948500Y-109660500D01*
X193234000Y-109220000D02*
X192024000Y-109220000D01*
X191448500Y-109795500D02*
X191448500Y-110371000D01*
X192024000Y-109220000D02*
X191448500Y-109795500D01*
X193234000Y-108220000D02*
X191817500Y-108220000D01*
X190448500Y-109589000D02*
X190448500Y-110371000D01*
X191817500Y-108220000D02*
X190448500Y-109589000D01*
X197164000Y-108220000D02*
X198552500Y-108220000D01*
X198552500Y-108220000D02*
X198576500Y-108196000D01*
X197164000Y-108220000D02*
X197215000Y-108220000D01*
X197164000Y-110220000D02*
X197205802Y-110220000D01*
X197205802Y-110220000D02*
X197866000Y-110880198D01*
X199576500Y-108517500D02*
X199576500Y-108196000D01*
X199771698Y-108712698D02*
X199576500Y-108517500D01*
X199771698Y-110045500D02*
X199771698Y-108712698D01*
X198937000Y-110880198D02*
X199771698Y-110045500D01*
X197866000Y-110880198D02*
X198937000Y-110880198D01*
X197164000Y-110220000D02*
X197215000Y-110220000D01*
X197164000Y-109220000D02*
X197675500Y-109220000D01*
X199076500Y-109152500D02*
X199076500Y-108196000D01*
X198628000Y-109601000D02*
X199076500Y-109152500D01*
X198056500Y-109601000D02*
X198628000Y-109601000D01*
X197675500Y-109220000D02*
X198056500Y-109601000D01*
X196199000Y-111185000D02*
X199076000Y-111185000D01*
X200076500Y-110184500D02*
X200076500Y-108196000D01*
X199076000Y-111185000D02*
X200076500Y-110184500D01*
X197164000Y-109720000D02*
X197731000Y-109720000D01*
X197731000Y-109720000D02*
X198247000Y-110236000D01*
X194699000Y-112133000D02*
X194500500Y-112331500D01*
X194699000Y-112133000D02*
X194699000Y-111185000D01*
X195199000Y-116840000D02*
X195326000Y-116840000D01*
M02*
